<?xml version="1.0" encoding="utf-8"?>
<svg xmlns="http://www.w3.org/2000/svg" xmlns:xlink="http://www.w3.org/1999/xlink">
    <symbol viewBox="0 0 12 8" id="arrow-down" xmlns="http://www.w3.org/2000/svg">
        <path d="M2.12 1.29L6 5.17l3.88-3.88a.996.996 0 111.41 1.41L6.7 7.29a.996.996 0 01-1.41 0L.7 2.7a.996.996 0 010-1.41c.39-.38 1.03-.39 1.42 0z"/>
    </symbol>
    <symbol viewBox="0 0 16 16" id="arrow-left" xmlns="http://www.w3.org/2000/svg">
        <path d="M15 7H3.83l4.88-4.88c.39-.39.39-1.03 0-1.42A.996.996 0 007.3.7L.71 7.29a.996.996 0 000 1.41l6.59 6.59a.996.996 0 101.41-1.41L3.83 9H15c.55 0 1-.45 1-1s-.45-1-1-1z"/>
    </symbol>
    <symbol viewBox="0 0 12 14" id="arrow-right" xmlns="http://www.w3.org/2000/svg">
        <path d="M2 11.59L6.58 7 2 2.41 3.41 1l6 6-6 6L2 11.59z"/>
    </symbol>
    <symbol viewBox="0 0 329.269 329" id="close" xmlns="http://www.w3.org/2000/svg">
        <path d="M194.8 164.77L323.013 36.555c8.343-8.34 8.343-21.825 0-30.164-8.34-8.34-21.825-8.34-30.164 0L164.633 134.605 36.422 6.391c-8.344-8.34-21.824-8.34-30.164 0-8.344 8.34-8.344 21.824 0 30.164l128.21 128.215L6.259 292.984c-8.344 8.34-8.344 21.825 0 30.164a21.266 21.266 0 0015.082 6.25c5.46 0 10.922-2.09 15.082-6.25l128.21-128.214 128.216 128.214a21.273 21.273 0 0015.082 6.25c5.46 0 10.922-2.09 15.082-6.25 8.343-8.34 8.343-21.824 0-30.164zm0 0"/>
    </symbol>
    <symbol viewBox="0 0 20 20" id="comment" xmlns="http://www.w3.org/2000/svg">
        <path fill-rule="evenodd" clip-rule="evenodd"
              d="M3.333 1.667h13.333c.917 0 1.667.75 1.667 1.666v15L14.999 15H3.333c-.917 0-1.667-.75-1.667-1.667v-10c0-.916.75-1.666 1.667-1.666zM15.69 13.333l.975.975V3.333H3.333v10H15.69z"
              fill-opacity=".4"/>
    </symbol>
    <symbol viewBox="0 0 20 20" id="delete" xmlns="http://www.w3.org/2000/svg">
        <path fill-rule="evenodd" clip-rule="evenodd"
              d="M12.324 2.742l.592.591h2.083c.459 0 .834.375.834.834a.836.836 0 01-.834.833H5a.836.836 0 01-.833-.833c0-.459.375-.834.833-.834h2.084l.591-.591a.84.84 0 01.584-.242h3.483a.84.84 0 01.583.242zM5 15.833c0 .917.75 1.667 1.667 1.667h6.667c.916 0 1.666-.75 1.666-1.667V7.5c0-.917-.75-1.667-1.666-1.667H6.666c-.917 0-1.667.75-1.667 1.667v8.333zM7.5 7.5h5c.459 0 .834.375.834.833V15a.836.836 0 01-.834.833h-5A.836.836 0 016.666 15V8.333c0-.458.375-.833.833-.833z"
              fill-opacity=".4"/>
    </symbol>
    <symbol viewBox="0 0 18 18" id="dislike" xmlns="http://www.w3.org/2000/svg">
        <path fill-rule="evenodd" clip-rule="evenodd"
              d="M16.5 8.94c0-.21-.045-.412-.128-.6l-1.995-4.612A1.51 1.51 0 0013.087 3H7.006c-.968 0-1.755.788-1.755 1.747v5.88c0 .398.157.78.442 1.066L10.5 16.5l.345-.352a3.6 3.6 0 00.66-.915.752.752 0 00.06-.495l-.69-3.488H15c.825 0 1.5-.675 1.5-1.5v-.81zM3 3H1.5v8.25H3c.413 0 .75-.338.75-.75V3.75A.752.752 0 003 3z"/>
    </symbol>
    <symbol viewBox="0 0 20 16" id="envelope" xmlns="http://www.w3.org/2000/svg">
        <path fill-rule="evenodd" clip-rule="evenodd"
              d="M2 0h16c1.1 0 2 .9 2 2v12c0 1.1-.9 2-2 2H2c-1.1 0-2-.9-2-2L.01 2C.01.9.9 0 2 0zm8.53 8.67l7.07-4.42a.85.85 0 10-.9-1.44L10 7 3.3 2.81a.85.85 0 10-.9 1.44l7.07 4.42c.32.2.74.2 1.06 0z"/>
    </symbol>
    <symbol viewBox="0 0 20 20" id="file" xmlns="http://www.w3.org/2000/svg">
        <path fill-rule="evenodd" clip-rule="evenodd"
              d="M5 1.667h6.667l5 5v10c0 .916-.75 1.666-1.666 1.666H4.992c-.916 0-1.658-.75-1.658-1.666l.008-13.334c0-.916.742-1.666 1.659-1.666zm0 1.666v13.334h10V7.5h-4.166V3.333H5.001z"/>
    </symbol>
    <symbol viewBox="0 0 20 20" id="heart-1" xmlns="http://www.w3.org/2000/svg">
        <path fill-rule="evenodd" clip-rule="evenodd"
              d="M10 4.242c1.467-1.717 4.184-2.417 6.384-.917 1.167.8 1.9 2.15 1.95 3.567.108 3.233-2.75 5.825-7.125 9.791l-.091.084a1.663 1.663 0 01-2.242.008l-.083-.075-.05-.046C4.395 12.705 1.55 10.121 1.667 6.9a4.56 4.56 0 011.95-3.575c2.2-1.508 4.916-.8 6.383.917zm0 11.3l.084-.084c3.967-3.591 6.584-5.966 6.584-8.375 0-1.666-1.25-2.916-2.917-2.916-1.284 0-2.534.825-2.967 1.966H9.226C8.784 4.992 7.534 4.167 6.25 4.167c-1.667 0-2.917 1.25-2.917 2.916 0 2.409 2.617 4.784 6.584 8.375l.083.084z"
              fill-opacity=".4"/>
    </symbol>
    <symbol viewBox="0 0 20 20" id="heart-2" xmlns="http://www.w3.org/2000/svg">
        <path d="M16.384 3.325c-2.2-1.5-4.917-.8-6.383.917-1.467-1.717-4.183-2.425-6.383-.917A4.56 4.56 0 001.667 6.9c-.117 3.233 2.75 5.825 7.125 9.8l.083.075a1.663 1.663 0 002.242-.008l.091-.084c4.375-3.966 7.233-6.558 7.125-9.791a4.557 4.557 0 00-1.95-3.567z"/>
    </symbol>
    <symbol viewBox="0 0 20 20" id="info" xmlns="http://www.w3.org/2000/svg">
        <path fill-rule="evenodd" clip-rule="evenodd"
              d="M10 1.667A8.336 8.336 0 001.665 10c0 4.6 3.733 8.333 8.333 8.333S18.333 14.6 18.333 10s-3.734-8.333-8.334-8.333zm-.834 12.5v-5h1.667v5H9.166zm0-8.334V7.5h1.667V5.833H9.166z"
              fill-opacity=".4"/>
    </symbol>
    <symbol viewBox="0 0 18 18" id="like" xmlns="http://www.w3.org/2000/svg">
        <path fill-rule="evenodd" clip-rule="evenodd"
              d="M16.5 9.06c0 .21-.045.412-.128.6l-1.995 4.613a1.51 1.51 0 01-1.29.727H7.006a1.756 1.756 0 01-1.755-1.748v-5.88c0-.397.157-.78.442-1.064L10.5 1.5l.345.353c.27.27.487.577.66.915.075.15.097.33.06.495l-.69 3.487H15c.825 0 1.5.675 1.5 1.5v.81zM3 15H1.5V6.75H3c.413 0 .75.338.75.75v6.75c0 .412-.337.75-.75.75z"/>
    </symbol>
    <symbol viewBox="0 0 14 20" id="marker" xmlns="http://www.w3.org/2000/svg">
        <path fill-rule="evenodd" clip-rule="evenodd"
              d="M0 7c0-3.87 3.13-7 7-7s7 3.13 7 7c0 5.25-7 13-7 13S0 12.25 0 7zm4.5 0a2.5 2.5 0 005 0 2.5 2.5 0 00-5 0z"/>
    </symbol>
    <symbol viewBox="0 0 512 512" id="menu" xmlns="http://www.w3.org/2000/svg">
        <path d="M501.333 42.667H138.667c-5.888 0-10.667 4.779-10.667 10.667S132.779 64 138.667 64h362.667C507.221 64 512 59.221 512 53.333s-4.779-10.666-10.667-10.666zm-149.333 64H138.667c-5.888 0-10.667 4.779-10.667 10.667S132.779 128 138.667 128H352c5.888 0 10.667-4.779 10.667-10.667s-4.779-10.666-10.667-10.666zm149.333 106.666H138.667c-5.888 0-10.667 4.779-10.667 10.667s4.779 10.667 10.667 10.667h362.667c5.888 0 10.667-4.779 10.667-10.667s-4.78-10.667-10.668-10.667zm-149.333 64H138.667c-5.888 0-10.667 4.779-10.667 10.667s4.779 10.667 10.667 10.667H352c5.888 0 10.667-4.779 10.667-10.667s-4.779-10.667-10.667-10.667zM501.333 384H138.667c-5.888 0-10.667 4.779-10.667 10.667s4.779 10.667 10.667 10.667h362.667c5.888 0 10.667-4.779 10.667-10.667S507.221 384 501.333 384zM352 448H138.667c-5.888 0-10.667 4.779-10.667 10.667s4.779 10.667 10.667 10.667H352c5.888 0 10.667-4.779 10.667-10.667S357.888 448 352 448zM42.667 42.667C19.136 42.667 0 61.803 0 85.333 0 108.864 19.136 128 42.667 128c23.531 0 42.667-19.136 42.667-42.667-.001-23.53-19.137-42.666-42.667-42.666zm0 64c-11.776 0-21.333-9.579-21.333-21.333C21.333 73.579 30.891 64 42.667 64S64 73.579 64 85.333c0 11.755-9.557 21.334-21.333 21.334zm0 106.666C19.136 213.333 0 232.469 0 256s19.136 42.667 42.667 42.667c23.531 0 42.667-19.136 42.667-42.667s-19.137-42.667-42.667-42.667zm0 64c-11.776 0-21.333-9.579-21.333-21.333 0-11.755 9.557-21.333 21.333-21.333S64 244.245 64 256c0 11.755-9.557 21.333-21.333 21.333zm0 106.667C19.136 384 0 403.136 0 426.667s19.136 42.667 42.667 42.667c23.531 0 42.667-19.136 42.667-42.667S66.197 384 42.667 384zm0 64c-11.776 0-21.333-9.579-21.333-21.333s9.557-21.333 21.333-21.333S64 414.912 64 426.667 54.443 448 42.667 448z"/>
    </symbol>
    <symbol viewBox="0 0 18 18" id="phone" xmlns="http://www.w3.org/2000/svg">
        <path fill-rule="evenodd" clip-rule="evenodd"
              d="M3.62 7.79c1.44 2.83 3.76 5.14 6.59 6.59l2.2-2.2c.27-.27.67-.36 1.02-.24 1.12.37 2.33.57 3.57.57.55 0 1 .45 1 1V17c0 .55-.45 1-1 1C7.61 18 0 10.39 0 1c0-.55.45-1 1-1h3.5c.55 0 1 .45 1 1 0 1.25.2 2.45.57 3.57.11.35.03.74-.25 1.02l-2.2 2.2z"/>
    </symbol>
    <symbol viewBox="0 0 11 14" id="play" xmlns="http://www.w3.org/2000/svg">
        <path d="M0 1.82v10.36c0 .79.87 1.27 1.54.84l8.14-5.18a1 1 0 000-1.69L1.54.98A.998.998 0 000 1.82z"/>
    </symbol>
    <symbol viewBox="0 0 24 24" id="present" xmlns="http://www.w3.org/2000/svg">
        <path fill-rule="evenodd" clip-rule="evenodd"
              d="M20 6h-2.18c.11-.31.18-.65.18-1a2.996 2.996 0 00-5.5-1.65l-.5.67-.5-.68C10.96 2.54 10.05 2 9 2 7.34 2 6 3.34 6 5c0 .35.07.69.18 1H4c-1.11 0-1.99.89-1.99 2L2 19c0 1.11.89 2 2 2h16c1.11 0 2-.89 2-2V8c0-1.11-.89-2-2-2zm-5-2c.55 0 1 .45 1 1s-.45 1-1 1-1-.45-1-1 .45-1 1-1zm-5 1c0-.55-.45-1-1-1s-1 .45-1 1 .45 1 1 1 1-.45 1-1zM4 19v-2h16v2H4zM4 9v5h16V9c0-.55-.45-1-1-1h-4.08l1.48 2.02c.33.45.23 1.08-.22 1.4-.44.32-1.07.22-1.39-.22L12 7.4l-2.79 3.8c-.32.44-.95.54-1.39.22a.995.995 0 01-.22-1.4L9.08 8H5c-.55 0-1 .45-1 1z"/>
    </symbol>
    <symbol viewBox="0 0 24 24" id="send" xmlns="http://www.w3.org/2000/svg">
        <path d="M2.01 21L23 12 2.01 3 2 10l15 2-15 2 .01 7z" fill-opacity=".4"/>
    </symbol>
    <symbol viewBox="0 0 24 24" id="upload" xmlns="http://www.w3.org/2000/svg">
        <path d="M16.5 6v11.5c0 2.21-1.79 4-4 4s-4-1.79-4-4V5a2.5 2.5 0 015 0v10.5c0 .55-.45 1-1 1s-1-.45-1-1V6H10v9.5a2.5 2.5 0 005 0V5c0-2.21-1.79-4-4-4S7 2.79 7 5v12.5c0 3.04 2.46 5.5 5.5 5.5s5.5-2.46 5.5-5.5V6h-1.5z"
              fill-opacity=".4"/>
    </symbol>
    <symbol viewBox="0 0 24 24" id="warning" xmlns="http://www.w3.org/2000/svg">
        <path fill-rule="evenodd" clip-rule="evenodd"
              d="M19.53 21c1.54 0 2.5-1.67 1.73-3L13.73 4.99c-.77-1.33-2.69-1.33-3.46 0L2.74 18c-.77 1.33.19 3 1.73 3h15.06zM12 14c-.55 0-1-.45-1-1v-2c0-.55.45-1 1-1s1 .45 1 1v2c0 .55-.45 1-1 1zm-1 2v2h2v-2h-2z"/>
    </symbol>
    <symbol viewBox="0 0 24 24" id="eye" xmlns="http://www.w3.org/2000/svg">
        <path fill-rule="evenodd" clip-rule="evenodd" d="M12 5C7 5 2.73 8.11 1 12.5C2.73 16.89 7 20 12 20C17 20 21.27 16.89 23 12.5C21.27 8.11 17 5 12 5ZM12 17.5C9.24 17.5 7 15.26 7 12.5C7 9.74 9.24 7.5 12 7.5C14.76 7.5 17 9.74 17 12.5C17 15.26 14.76 17.5 12 17.5ZM9 12.5C9 10.84 10.34 9.5 12 9.5C13.66 9.5 15 10.84 15 12.5C15 14.16 13.66 15.5 12 15.5C10.34 15.5 9 14.16 9 12.5Z"/>
    </symbol>
</svg>